<?xml version="1.0"?>
<svg xmlns="http://www.w3.org/2000/svg" xmlns:xlink="http://www.w3.org/1999/xlink" version="1.1" id="Layer_1" x="0px" y="0px" viewBox="0 0 512 512" style="enable-background:new 0 0 512 512;" xml:space="preserve" width="512px" height="512px" class=""><g><g>
	<g>
		<g>
			<path d="M256,192c-35.292,0-64,28.708-64,64s28.708,64,64,64s64-28.708,64-64S291.292,192,256,192z M256,298.667     c-23.521,0-42.667-19.135-42.667-42.667s19.146-42.667,42.667-42.667s42.667,19.135,42.667,42.667S279.521,298.667,256,298.667z" data-original="#682F99" class="active-path" data-old_color="#F8F7F8" fill="#F9F9F9"/>
			<path d="M256,384c-35.292,0-64,28.708-64,64c0,35.292,28.708,64,64,64s64-28.708,64-64C320,412.708,291.292,384,256,384z      M256,490.667c-23.521,0-42.667-19.135-42.667-42.667s19.146-42.667,42.667-42.667s42.667,19.135,42.667,42.667     S279.521,490.667,256,490.667z" data-original="#682F99" class="active-path" data-old_color="#F8F7F8" fill="#F9F9F9"/>
			<path d="M256,128c35.292,0,64-28.708,64-64S291.292,0,256,0s-64,28.708-64,64S220.708,128,256,128z M256,21.333     c23.521,0,42.667,19.135,42.667,42.667S279.521,106.667,256,106.667S213.333,87.531,213.333,64S232.479,21.333,256,21.333z" data-original="#682F99" class="active-path" data-old_color="#F8F7F8" fill="#F9F9F9"/>
		</g>
	</g>
</g></g> </svg>
